<svg width="35" height="36" viewBox="0 0 35 36" fill="none" xmlns="http://www.w3.org/2000/svg">
<g clip-path="url(#clip0)">
<path fill-rule="evenodd" clip-rule="evenodd" d="M0 4.01443L20.5287 0.00604248L20.4574 35.994L0 31.7026V4.01443ZM7.27894 22.7031C5.72644 20.8661 5.29378 17.9794 6.03694 15.5816C7.07024 12.2473 9.69168 11.1204 11.8855 11.8923C13.1377 12.3348 14.2525 13.3999 14.848 15.031C15.1331 15.8132 15.2858 16.7085 15.296 17.6193C15.3163 19.2555 14.7564 21.18 13.6467 22.523C11.9415 24.5812 9.05032 24.7922 7.28403 22.7031H7.27894ZM8.87725 20.9587C8.11373 19.8113 7.90503 18.0103 8.26643 16.513C8.77036 14.4342 10.0582 13.7292 11.1322 14.2129C11.7481 14.4908 12.2928 15.1545 12.5829 16.1734C12.7203 16.6622 12.7967 17.2179 12.8018 17.7891C12.812 18.8079 12.5371 20.0119 11.9924 20.8507C11.1576 22.1371 9.74258 22.2657 8.87725 20.9639V20.9587ZM21.8674 7.59058H33.7835C34.4503 7.59058 34.9949 8.14116 34.9949 8.81522V9.25774L25.629 15.6434C25.5068 15.7257 25.2065 15.9624 24.9571 16.1219C24.5906 16.3637 24.5652 16.3174 24.1783 16.0962C23.5828 15.7617 22.5545 15.0516 21.8623 14.5679V7.59058H21.8674ZM35 12.0929V24.9774C35 26.0065 34.1652 26.8555 33.1421 26.8555H21.8674V17.326C22.5444 17.7788 23.4453 18.3757 24.0001 18.7204C24.4481 18.9983 24.5295 19.1269 25.0284 18.8336C25.2574 18.6998 25.4814 18.5249 25.6341 18.422L35 12.0981V12.0929Z" fill="#0072C6"/>
</g>
<defs>
<clipPath id="clip0">
<rect width="35" height="36" fill="white"/>
</clipPath>
</defs>
</svg>
