<svg width="24" height="24" viewBox="0 0 24 24" fill="none" xmlns="http://www.w3.org/2000/svg">
<g clip-path="url(#clip0)">
<path d="M11.9999 21C19.0604 21 23.6159 13.074 23.8064 12.738C24.0629 12.282 24.0644 11.724 23.8079 11.268C23.6189 10.9305 19.0964 3 11.9999 3C4.86745 3 0.376447 10.9335 0.188947 11.271C-0.0645529 11.7255 -0.0630529 12.279 0.191947 12.7335C0.380947 13.0695 4.90345 21 11.9999 21ZM11.9999 6C16.2584 6 19.5539 10.2525 20.7269 12C19.5509 13.749 16.2554 18 11.9999 18C7.73845 18 4.44295 13.743 3.27145 11.9985C4.43695 10.2525 7.71895 6 11.9999 6Z" fill="#333333" fill-opacity="0.8"/>
<path d="M12 15C13.6569 15 15 13.6569 15 12C15 10.3431 13.6569 9 12 9C10.3431 9 9 10.3431 9 12C9 13.6569 10.3431 15 12 15Z" fill="#333333" fill-opacity="0.8"/>
</g>
<defs>
<clipPath id="clip0">
<rect width="24" height="24" fill="white"/>
</clipPath>
</defs>
</svg>
